<svg
  width="180"
  height="38"
  viewBox="0 0 180 38"
  fill="none"
  xmlns="http://www.w3.org/2000/svg"
>
  <defs>
    <!-- Cast-bronze frame: diagonal sheen across the metal -->
    <linearGradient id="frame" x1="0" y1="0" x2="1" y2="1">
      <stop offset="0" stop-color="#EDC98E" />
      <stop offset="0.5" stop-color="#C0873F" />
      <stop offset="1" stop-color="#794E1B" />
    </linearGradient>
    <!-- Recessed inner panel -->
    <linearGradient id="panel" x1="0" y1="0" x2="0" y2="1">
      <stop offset="0" stop-color="#2A1F11" />
      <stop offset="1" stop-color="#160F08" />
    </linearGradient>
    <!-- Embossed T: bright top highlight into deeper bronze -->
    <linearGradient id="mono" x1="0" y1="0" x2="0" y2="1">
      <stop offset="0" stop-color="#FCE6BE" />
      <stop offset="0.5" stop-color="#E0A559" />
      <stop offset="1" stop-color="#A86C2C" />
    </linearGradient>
    <!-- Verdigris patina inlay -->
    <linearGradient id="patina" x1="0" y1="0" x2="1" y2="0">
      <stop offset="0" stop-color="#6FD0C1" />
      <stop offset="1" stop-color="#36A096" />
    </linearGradient>
    <!-- Glossy top sheen -->
    <linearGradient id="gloss" x1="0" y1="0" x2="0" y2="1">
      <stop offset="0" stop-color="#FFFFFF" stop-opacity="0.42" />
      <stop offset="0.6" stop-color="#FFFFFF" stop-opacity="0" />
    </linearGradient>
    <!-- Metallic wordmark: cream into light bronze -->
    <linearGradient id="word" x1="0" y1="0" x2="0" y2="1">
      <stop offset="0" stop-color="#FBF3E4" />
      <stop offset="1" stop-color="#E2C79A" />
    </linearGradient>
  </defs>

  <g transform="translate(26 0)">
    <!-- Emblem -->
    <rect x="0" y="0" width="38" height="38" rx="9" fill="url(#frame)" />
    <rect x="0" y="0" width="38" height="20" rx="9" fill="url(#gloss)" />
    <rect x="3" y="3" width="32" height="32" rx="6.5" fill="url(#panel)" />
    <g fill="url(#mono)">
      <rect x="9" y="9.5" width="20" height="4.6" rx="1.4" />
      <rect x="16.7" y="9.5" width="4.6" height="18.5" rx="1.4" />
    </g>
    <rect x="13.5" y="30" width="11" height="2.1" rx="1.05" fill="url(#patina)" />

    <!-- Wordmark -->
    <text
      x="50"
      y="26.5"
      font-family="'Space Grotesk', 'Inter', system-ui, sans-serif"
      font-size="24"
      font-weight="700"
      letter-spacing="-0.6"
      fill="url(#word)"
    >Talos</text>
    <circle cx="124.5" cy="22.5" r="2.6" fill="url(#patina)" />
  </g>
</svg>
