<svg
      width="180"
      height="38"
      viewBox="0 0 180 38"
      fill="none"
      xmlns="http://www.w3.org/2000/svg"
    >
      <path
        d="M33.5322 0H4.32674C1.93715 0 0 1.93796 0 4.32856V33.5463C0 35.9369 1.93715 37.8749 4.32674 37.8749H33.5322C35.9218 37.8749 37.8589 35.9369 37.8589 33.5463V4.32856C37.8589 1.93796 35.9218 0 33.5322 0Z"
        fill="#432371"
      />
      <path
        fillRule="evenodd"
        clipRule="evenodd"
        d="M25.7659 12.4395C25.6981 12.5084 25.5873 12.5117 25.5127 12.4471C24.5528 11.6103 23.5249 10.9777 22.429 10.5492C21.323 10.1157 20.1584 9.90962 18.9353 9.93105C17.3758 9.95877 15.9322 10.3608 14.6045 11.1371C13.9268 11.5328 12.9669 12.3412 11.7248 13.5624C10.0444 15.2145 8.36084 16.8925 6.67412 18.5963C6.53682 18.7349 6.47635 18.7072 6.49273 18.5131C6.8404 14.4401 8.5857 11.2228 11.7286 8.86113C14.0578 7.11069 16.8014 6.33062 19.9594 6.52091C23.0935 6.70868 25.764 7.8958 27.971 10.0823C27.9889 10.1 27.9989 10.1242 27.9989 10.1494C27.9989 10.1746 27.9889 10.1987 27.971 10.2165L25.7659 12.4395Z"
        fill="#FAAE7B"
      />
      <path
        fillRule="evenodd"
        clipRule="evenodd"
        d="M9.03791 24.8608C8.81243 25.0939 8.57624 25.3164 8.32934 25.5281C8.31114 25.5432 8.28728 25.5496 8.26425 25.5456C8.24123 25.5416 8.22145 25.5275 8.2103 25.5073C7.66989 24.5117 7.23215 23.4443 6.89708 22.3051C6.869 22.2106 6.89506 22.1077 6.9651 22.0367C9.16073 19.8389 11.3198 17.6788 13.4424 15.5566C14.5761 14.4237 15.4037 13.706 15.9252 13.4036C16.9216 12.8264 18.0144 12.5447 19.2036 12.5586C20.8739 12.5788 22.3622 13.1723 23.6685 14.3393C23.6876 14.3559 23.6992 14.3794 23.7007 14.4044C23.702 14.4294 23.6932 14.4537 23.6761 14.4716L21.4219 16.7854C21.3643 16.8445 21.2692 16.8494 21.2008 16.7967C20.3618 16.1464 19.4763 15.919 18.5441 16.1143C18.0528 16.2164 17.5427 16.4987 17.0136 16.9612C16.5412 17.372 16.0077 17.8855 15.4132 18.5018C14.6133 19.3285 12.7288 21.1999 9.75971 24.116C9.75341 24.1223 9.51281 24.3706 9.03791 24.8608Z"
        fill="#FEF6F0"
      />
      <path
        fillRule="evenodd"
        clipRule="evenodd"
        d="M28.0069 19.5717C25.7357 21.8552 24.3324 23.2547 23.797 23.7701C22.9606 24.5779 21.9944 25.1312 20.8985 25.4298C19.8164 25.726 18.7394 25.7499 17.6674 25.5017C16.5198 25.2332 15.4957 24.6737 14.595 23.8231C14.5768 23.8064 14.5662 23.7829 14.5659 23.7579C14.5655 23.7329 14.5754 23.7086 14.5931 23.6907L16.8436 21.4186C16.912 21.3504 17.0206 21.3432 17.0986 21.4015C18.1631 22.2056 19.2111 22.4015 20.2428 21.9894C20.7076 21.8042 21.3652 21.2894 22.2155 20.445C24.8054 17.8704 27.3877 15.3009 29.9625 12.7363C29.9791 12.7193 30.0027 12.7113 30.0265 12.7146C30.0503 12.718 30.0713 12.7323 30.0835 12.7533C30.6919 13.822 31.1366 14.897 31.4175 15.9782C31.4397 16.0601 31.4159 16.148 31.3551 16.2088C30.1836 17.3846 29.0675 18.5056 28.0069 19.5717Z"
        fill="#FEF6F0"
      />
      <path
        fillRule="evenodd"
        clipRule="evenodd"
        d="M31.1 23.3806C30.77 24.235 30.3959 25.0308 29.9777 25.7681L29.3598 26.6338L28.9346 27.2009C28.2242 27.9949 27.4728 28.693 26.6804 29.2954L26.106 29.7283C25.2293 30.2626 24.3274 30.7144 23.4002 31.0836L22.6047 31.3124C18.0888 32.4113 14.0231 31.4056 10.4078 28.2954C10.3436 28.24 10.3055 28.1601 10.3029 28.0753C10.3005 27.9904 10.3337 27.9084 10.3946 27.8493L12.5694 25.7151C12.6072 25.6779 12.6682 25.6779 12.7074 25.7151C14.3991 27.2828 16.3283 28.1429 18.495 28.2954C20.6995 28.4504 22.6608 27.9129 24.379 26.683C24.8086 26.3767 25.7332 25.523 27.1528 24.1216C28.667 22.627 30.1698 21.1324 31.6612 19.6377C31.7671 19.5306 31.8149 19.5521 31.8048 19.702C31.7179 20.9585 31.483 22.1846 31.1 23.3806Z"
        fill="#FAAE7B"
      />
      <path
        d="M19.1563 21.1122C20.1999 21.1122 21.0459 20.2659 21.0459 19.2219C21.0459 18.1779 20.1999 17.3315 19.1563 17.3315C18.1128 17.3315 17.2668 18.1779 17.2668 19.2219C17.2668 20.2659 18.1128 21.1122 19.1563 21.1122Z"
        fill="#FAAE7B"
      />
      <path
        fillRule="evenodd"
        clipRule="evenodd"
        d="M58.1143 6.49292C50.9099 6.49292 45.0702 12.1452 45.0702 19.1179C45.0702 26.0906 50.9099 31.7428 58.1143 31.7428C65.3187 31.7428 71.1585 26.0906 71.1585 19.1179C71.1585 12.1452 65.3187 6.49292 58.1143 6.49292ZM58.1143 26.8396C53.7079 26.8396 50.1365 23.3825 50.1365 19.1179C50.1365 14.8532 53.7079 11.3962 58.1143 11.3962C62.5208 11.3962 66.0921 14.8532 66.0921 19.1179C66.0921 23.3825 62.5208 26.8396 58.1143 26.8396Z"
        fill="#432371"
      />
      <path
        d="M78.3705 29.5224C78.3705 29.826 78.4422 30.1266 78.5939 30.3893C79.0823 31.237 80.0005 31.7703 80.9895 31.7417C81.9156 31.7155 82.7544 31.2016 83.2181 30.4125C83.3766 30.1427 83.4542 29.8337 83.4542 29.5216V17.2545C83.4645 16.8685 83.7801 16.5626 84.1475 16.561C84.4359 16.5595 84.628 16.783 84.7994 17.0165C84.9177 17.1775 84.9908 17.2892 85.0729 17.4118C87.8332 21.5799 90.5171 25.7481 93.2773 29.9155C93.3012 29.9508 93.3252 29.9863 93.3517 30.0202C94.3412 31.3125 95.9612 32.0145 97.2411 31.5876C97.2728 31.5768 97.3038 31.566 97.3336 31.5545C98.3916 31.146 98.7712 29.8376 98.14 28.8959C93.4506 21.8959 88.7625 14.8958 84.0731 7.89571C84.0194 7.81634 83.9612 7.74005 83.8952 7.67146C82.7978 6.53099 81.2062 6.18807 79.9873 6.77526C79.1555 7.17597 78.7218 7.9011 78.5161 8.36885C78.4175 8.59309 78.3698 8.83506 78.3698 9.08011V29.5232L78.3705 29.5224Z"
        fill="#432371"
      />
      <path
        d="M93.7559 8.92963C93.7598 7.62656 94.9523 6.53694 96.2833 6.54078C97.6142 6.54464 98.7059 7.61962 98.702 8.9227C98.6956 12.2386 98.6885 19.1762 98.6826 22.4913C98.1478 22.4443 96.8479 22.2555 95.6657 21.2607C93.763 19.6601 93.7371 17.299 93.7397 16.9453C93.7449 14.273 93.7513 11.6013 93.7565 8.92886L93.7559 8.92963Z"
        fill="#432371"
      />
      <path
        d="M122.733 16.9718C123.569 16.9799 124.262 18.1732 124.252 19.4987C124.241 20.8252 123.546 21.9097 122.71 21.9016C120.584 21.8836 116.133 21.853 114.006 21.835C113.99 21.3931 113.985 20.225 114.466 19.0416C115.106 17.4685 116.136 17.0204 116.368 16.9294L122.733 16.9718Z"
        fill="#432371"
      />
      <path
        d="M124.342 8.77078V8.70397C124.342 7.48269 123.353 6.49292 122.132 6.49292H108.124C106.902 6.49292 105.913 7.48269 105.913 8.70397V29.5318C105.913 30.753 106.902 31.7428 108.124 31.7428H122.532C123.754 31.7428 124.743 30.753 124.743 29.5318C124.743 28.3159 123.762 27.3285 122.546 27.3207L112.559 27.2671C111.343 27.2601 110.361 26.2719 110.361 25.0561C110.361 25.0561 110.361 14.4141 110.361 13.1928C110.361 11.9716 111.351 10.9818 112.572 10.9818C113.792 10.9818 122.132 10.9818 122.132 10.9818C123.353 10.9818 124.342 9.99206 124.342 8.77078Z"
        fill="#432371"
      />
      <path
        d="M148.775 16.9718C149.611 16.9799 150.304 18.1732 150.293 19.4987C150.283 20.8252 149.588 21.9097 148.753 21.9016C146.626 21.8836 142.174 21.853 140.048 21.835C140.032 21.3931 140.027 20.225 140.508 19.0416C141.148 17.4685 142.178 17.0204 142.41 16.9294L148.776 16.9718H148.775Z"
        fill="#432371"
      />
      <path
        d="M150.383 8.77078V8.70397C150.383 7.48269 149.393 6.49292 148.172 6.49292H134.164C132.943 6.49292 131.954 7.48269 131.954 8.70397V29.5318C131.954 30.753 132.943 31.7428 134.164 31.7428H148.573C149.794 31.7428 150.784 30.753 150.784 29.5318C150.784 28.3159 149.802 27.3285 148.586 27.3207L138.599 27.2671C137.383 27.2601 136.402 26.2719 136.402 25.0561C136.402 25.0561 136.402 14.4141 136.402 13.1928C136.402 11.9716 137.391 10.9818 138.612 10.9818C139.833 10.9818 148.172 10.9818 148.172 10.9818C149.393 10.9818 150.383 9.99206 150.383 8.77078Z"
        fill="#432371"
      />
      <path
        fillRule="evenodd"
        clipRule="evenodd"
        d="M164.631 7.24653L168.913 14.3235L173.27 7.23643C173.555 6.77339 174.049 6.49292 174.582 6.49292H178.582C179.199 6.49292 179.57 7.19758 179.233 7.72899L172.407 18.4784L179.877 30.5137C180.207 31.0459 179.836 31.7428 179.222 31.7428H175.042C174.513 31.7428 174.02 31.4655 173.735 31.0079L168.913 23.2728L164.09 31.0079C163.804 31.4662 163.312 31.7428 162.783 31.7428H158.772C158.156 31.7428 157.786 31.0397 158.122 30.5083L165.573 18.7186C161.188 11.7444 158.884 8.08016 158.661 7.72589C158.326 7.19448 158.697 6.49292 159.313 6.49292C159.723 6.49292 161.057 6.49292 163.313 6.49292C163.85 6.49292 164.348 6.77804 164.631 7.24653Z"
        fill="#432371"
      />
    </svg>
